<svg width="74" height="71" viewBox="0 0 74 71" fill="none" xmlns="http://www.w3.org/2000/svg">
<path d="M33.3765 69.8885C34.3012 71.0089 35.9699 71.1761 36.9935 70.1452C38.9204 68.2046 40.5403 65.9745 41.7918 63.531C43.4439 60.3055 44.4191 56.7763 44.6578 53.1602C44.8964 49.5441 44.3934 45.9173 43.1796 42.5027C41.9658 39.088 40.0667 35.9575 37.5992 33.3034C35.1316 30.6492 32.1476 28.5275 28.8303 27.0685C25.5129 25.6094 21.9324 24.8439 18.3085 24.8188C14.6846 24.7938 11.0938 25.5097 7.75667 26.9227C5.22863 27.9931 2.88655 29.4465 0.810869 31.2271C-0.291716 32.173 -0.246341 33.8494 0.803813 34.8532C1.85397 35.857 3.50996 35.8047 4.6353 34.886C6.19939 33.6091 7.94037 32.5579 9.80787 31.7671C12.4848 30.6337 15.3652 30.0594 18.2721 30.0795C21.1791 30.0996 24.0512 30.7137 26.7122 31.884C29.3732 33.0544 31.7669 34.7564 33.7463 36.8854C35.7257 39.0144 37.249 41.5256 38.2227 44.2647C39.1964 47.0038 39.5999 49.913 39.4085 52.8137C39.217 55.7144 38.4347 58.5454 37.1095 61.1328C36.185 62.9378 35.0099 64.5977 33.6226 66.0648C32.6244 67.1203 32.4518 68.7681 33.3765 69.8885Z" fill="#253351"/>
<path d="M56.9593 16.4714C55.9343 15.4517 54.2442 15.5408 53.4451 16.7457C50.0814 21.8175 48.2511 27.9749 48.261 34.324C48.2709 40.6723 50.12 46.822 53.4988 51.8804C54.3022 53.0831 55.9933 53.1665 57.0151 52.1428C57.8963 51.26 57.9569 49.861 57.2626 48.8249C54.4629 44.6473 52.9304 39.5635 52.9222 34.315C52.914 29.066 54.4309 23.9759 57.218 19.7873C57.9088 18.7492 57.8432 17.3509 56.9593 16.4714Z" fill="#253351"/>
<circle cx="65.6928" cy="33.9773" r="7.38636" fill="#19A5B6"/>
<circle cx="24.6246" cy="46.6818" r="9.45455" fill="#19A5B6"/>
<circle cx="37.6246" cy="11.8182" r="11.8182" fill="#19A5B6"/>
</svg>
